<?xml version="1.0" standalone="no"?>
<!DOCTYPE svg PUBLIC "-//W3C//DTD SVG 20010904//EN"
 "http://www.w3.org/TR/2001/REC-SVG-20010904/DTD/svg10.dtd">
<svg version="1.0" xmlns="http://www.w3.org/2000/svg"
 width="928.000000pt" height="928.000000pt" viewBox="0 0 928.000000 928.000000"
 preserveAspectRatio="xMidYMid meet">
<metadata>
Created by potrace 1.11, written by Peter Selinger 2001-2013
</metadata>
<g transform="translate(0.000000,928.000000) scale(0.100000,-0.100000)"
fill="#000000" stroke="none">
<path d="M272 7099 c-17 -6 -18 -143 -17 -2410 l0 -2404 573 0 c376 0 572 3
573 10 5 50 0 565 -5 573 -4 7 -88 10 -252 10 -135 0 -250 4 -255 9 -11 11
-11 1 -10 453 0 212 0 392 0 400 -1 8 0 74 1 145 2 252 2 598 -1 660 0 6 0
147 0 315 0 168 0 312 0 320 0 8 0 116 0 240 0 124 0 232 0 240 0 8 0 80 0
160 0 80 0 154 0 165 0 11 0 133 1 271 l0 251 251 -1 c138 0 256 2 262 6 7 4
10 103 11 297 l1 291 -30 0 c-260 5 -1091 3 -1103 -1z"/>
<path d="M7976 7100 c-17 -7 -19 -589 -2 -591 6 0 123 -1 261 -2 l250 -2 0
-1808 c0 -1015 -4 -1811 -9 -1814 -4 -3 -122 -6 -260 -5 l-253 0 0 -294 c0
-162 3 -295 6 -295 18 -4 1118 -5 1129 -1 9 3 12 494 12 2408 0 1916 -3 2404
-12 2405 -89 3 -1112 3 -1122 -1z"/>
<path d="M2539 6876 c-3 -3 -5 -3982 -2 -3991 2 -7 125 -10 376 -9 204 0 377
2 383 2 8 2 11 214 12 783 0 429 2 782 4 783 1 2 104 6 228 9 236 6 332 20
459 68 202 75 357 216 440 401 37 81 78 213 87 275 3 26 8 51 10 54 25 43 25
786 -1 862 -2 6 -6 28 -9 47 -13 85 -87 289 -108 298 -4 2 -8 8 -8 14 0 6 -20
38 -44 72 -49 68 -131 144 -209 193 -50 32 -179 86 -228 97 -28 7 -98 21 -149
31 -28 6 -1237 17 -1241 11z m1083 -635 c63 -30 104 -75 128 -139 32 -85 35
-116 34 -407 0 -324 -5 -377 -49 -470 -53 -111 -150 -155 -341 -155 -60 0 -84
4 -85 13 0 6 0 275 -1 597 l-1 585 54 5 c89 8 213 -5 261 -29z"/>
<path d="M4908 6866 c-3 -9 -2 -3966 1 -3989 1 -10 1164 -2 1231 8 80 12 224
47 253 62 15 7 27 11 27 8 0 -7 96 43 150 79 169 112 275 283 325 525 26 125
30 196 29 516 0 322 -9 411 -49 530 -59 176 -169 299 -345 386 l-55 27 45 21
c25 12 54 27 65 34 23 14 135 123 135 131 0 3 13 27 29 53 26 43 66 146 77
198 29 141 35 215 35 420 0 175 -4 260 -15 314 -3 14 -8 40 -11 56 -12 79 -70
219 -118 290 -38 54 -121 136 -177 174 -47 32 -124 74 -140 76 -3 0 -14 6 -25
11 -24 13 -163 50 -220 59 -22 3 -56 8 -75 11 -19 4 -290 7 -602 9 -417 2
-568 0 -570 -9z m1073 -633 c71 -36 97 -67 126 -155 15 -45 18 -86 17 -283 -1
-222 -3 -245 -19 -310 -12 -47 -54 -109 -91 -133 -48 -31 -132 -48 -251 -51
-101 -2 -103 -2 -104 21 0 29 0 906 0 932 1 17 10 18 129 14 121 -3 133 -6
193 -35z m-34 -1549 c67 -22 127 -73 159 -135 13 -27 23 -49 20 -49 -2 0 3
-26 10 -57 10 -44 13 -136 10 -383 -3 -312 -7 -374 -27 -412 -5 -10 -6 -18 -2
-18 4 0 3 -4 -2 -8 -6 -4 -17 -20 -25 -36 -17 -34 -79 -78 -135 -96 -42 -14
-294 -24 -296 -12 -4 23 -4 1210 0 1221 6 19 218 8 288 -15z"/>
</g>
</svg>
