<?xml version="1.0" encoding="utf-8"?>
<!-- Generator: Adobe Illustrator 24.2.0, SVG Export Plug-In . SVG Version: 6.00 Build 0)  -->
<svg version="1.1" id="Layer_1" xmlns="http://www.w3.org/2000/svg" xmlns:xlink="http://www.w3.org/1999/xlink" x="0px" y="0px"
	 viewBox="0 0 492 408.7" style="enable-background:new 0 0 492 408.7;" xml:space="preserve">
<style type="text/css">
	.st0{fill:#FFFFFF;}
</style>
<g>
	<g>
		<path class="st0" d="M464.3,165.7l0.8,0.2H135.9L239.4,62.2c5.1-5.1,7.8-11.9,7.8-19.1c0-7.2-2.8-14-7.8-19.1L223.3,7.9
			c-5.1-5.1-11.8-7.9-19-7.9c-7.2,0-14,2.8-19,7.8L7.8,185.2C2.8,190.3,0,197.1,0,204.3c0,7.2,2.8,14,7.8,19.1l177.4,177.4
			c5.1,5.1,11.8,7.8,19,7.8c7.2,0,13.9-2.8,19-7.8l16.1-16.1c5.1-5.1,7.8-11.8,7.8-19c0-7.2-2.8-13.6-7.8-18.7L134.7,242.7h330
			c14.8,0,27.3-12.8,27.3-27.6v-22.8C492,177.5,479.2,165.7,464.3,165.7z"/>
	</g>
</g>
</svg>
