<?xml version="1.0" encoding="utf-8"?>
<!-- Generator: Adobe Illustrator 24.2.0, SVG Export Plug-In . SVG Version: 6.00 Build 0)  -->
<svg version="1.1" id="Layer_1" xmlns="http://www.w3.org/2000/svg" xmlns:xlink="http://www.w3.org/1999/xlink" x="0px" y="0px"
	 viewBox="0 0 598 251" style="enable-background:new 0 0 598 251;" xml:space="preserve">
<style type="text/css">
	.st0{fill:#222222;}
	.st1{fill:#FFFFFF;}
</style>
<g>
	<rect class="st0" width="598" height="251"/>
</g>
<g>
	<path class="st1" d="M293.4,87.7h22.4c13.2,0,23.8,3.5,23.8,15.8c0,5.7-3.2,11.9-8.3,13.8v0.3c6.4,1.7,11.4,6.5,11.4,15
		c0,13.1-11.1,18.9-25,18.9h-24.2V87.7z M315.2,113.1c6.5,0,9.5-2.8,9.5-7.2c0-4.6-3-6.4-9.5-6.4h-6.4v13.7H315.2z M316.5,139.9
		c7.4,0,11.2-2.7,11.2-8.2c0-5.2-3.7-7.3-11.2-7.3h-7.7v15.5H316.5z"/>
	<path class="st1" d="M383.4,137h-18.9l-3.7,14.7h-15.7l19.9-64h18.4l19.9,64h-16.2L383.4,137z M380.5,125.1l-1.4-5.4
		c-1.7-6.4-3.4-14-5.1-20.6h-0.3c-1.5,6.7-3.3,14.2-4.9,20.6l-1.4,5.4H380.5z"/>
	<path class="st1" d="M406,120.1c0-21.3,14.3-33.5,30.5-33.5c8.3,0,15,3.9,19.4,8.3l-8.1,9.8c-3.2-2.9-6.5-5-11.1-5
		c-8.3,0-15,7.4-15,19.9c0,12.7,5.8,20.1,14.9,20.1c5.1,0,9.2-2.6,12.2-5.8l8.1,9.6c-5.4,6.3-12.6,9.5-20.9,9.5
		C419.8,152.9,406,141.7,406,120.1z"/>
	<path class="st1" d="M466.3,87.7h15.4V113h0.3l18.1-25.3H517l-19.3,25.6l23,38.4h-16.9l-15-26.2l-7,9.5v16.8h-15.4V87.7z"/>
</g>
<g>
	<path class="st1" d="M79.4,73h23.3v8.9H91.9v75.4h10.8v8.9H79.4V73z"/>
	<path class="st1" d="M221.5,157.3h10.8V81.9h-10.8V73h23.3v93.2h-23.3V157.3z"/>
</g>
<g>
	<g>
		<path class="st1" d="M212.2,110.5l0.2,0h-72.2l22.7-22.7c1.1-1.1,1.7-2.6,1.7-4.2s-0.6-3.1-1.7-4.2l-3.5-3.5
			c-1.1-1.1-2.6-1.7-4.2-1.7c-1.6,0-3.1,0.6-4.2,1.7l-38.9,38.9c-1.1,1.1-1.7,2.6-1.7,4.2s0.6,3.1,1.7,4.2l38.9,38.9
			c1.1,1.1,2.6,1.7,4.2,1.7c1.6,0,3-0.6,4.2-1.7l3.5-3.5c1.1-1.1,1.7-2.6,1.7-4.2c0-1.6-0.6-3-1.7-4.1l-22.9-22.9h72.4
			c3.2,0,6-2.8,6-6.1v-5C218.3,113.1,215.5,110.5,212.2,110.5z"/>
	</g>
</g>
</svg>
