<?xml version="1.0" encoding="utf-8"?>
<!-- Generator: Adobe Illustrator 24.2.0, SVG Export Plug-In . SVG Version: 6.00 Build 0)  -->
<svg version="1.1" id="Layer_1" xmlns="http://www.w3.org/2000/svg" xmlns:xlink="http://www.w3.org/1999/xlink" x="0px" y="0px"
	 viewBox="0 0 440 440" style="enable-background:new 0 0 440 440;" xml:space="preserve">
<style type="text/css">
	.st0{fill:#FF3366;stroke:#000000;stroke-width:16;stroke-miterlimit:10;}
	.st1{fill:#FFFFFF;}
</style>
<rect x="8.5" y="8.5" class="st0" width="424" height="424"/>
<g id="Branding_service">
	<path class="st1" d="M113.2,105.5c-0.1,0.2-0.1,0.3-0.2,0.5c-1.7,3-1.1,7.9-2.2,11.5c-1.1,3.6-3.7,6.3-7.2,6.7
		c-1,9.6-4,18.9-7,28.2v88.2h231v-135H113.2z"/>
	<rect x="97.5" y="119.5" class="st1" width="243" height="134"/>
	<rect x="122.5" y="270.5" class="st1" width="194" height="32"/>
	<path class="st1" d="M151.7,318.5c-0.5,1.2-1.5,2.1-3.3,2.5c-4.4,0.9-8.9,1.5-13,3.3c-0.6,0.3-1.2,0.4-1.9,0.5v14
		c0.6,0.1,1.1,0.3,1.7,0.5c3.5,1.8,6.9,3.8,10.7,5c0.8,0.3,1.4,0.7,1.9,1.1h164.7v-27H151.7z"/>
	<path d="M339.6,116.8h-8.3v-12.4c0-2.3-1.9-4.1-4.1-4.1H112c-2.3,0-4.1,1.9-4.1,4.1v12.4h-8.3c-2.3,0-4.1,1.9-4.1,4.1v132.4
		c0,2.3,1.9,4.1,4.1,4.1h239.9c2.3,0,4.1-1.9,4.1-4.1V121C343.7,118.7,341.9,116.8,339.6,116.8z M323,236.8h-99.3V108.6H323V236.8z
		 M116.2,108.6h99.3v128.2h-99.3V108.6z M335.4,249.2H103.8V125.1h4.1v115.8c0,2.3,1.9,4.1,4.1,4.1h215.1c2.3,0,4.1-1.9,4.1-4.1
		V125.1h4.1V249.2z"/>
	<path d="M318.9,265.8H120.3c-2.3,0-4.1,1.9-4.1,4.1V303c0,2.3,1.9,4.1,4.1,4.1h198.6c2.3,0,4.1-1.9,4.1-4.1v-33.1
		C323,267.6,321.2,265.8,318.9,265.8z M314.8,298.9H124.5V274h8.3v8.3h8.3V274h8.3v8.3h8.3V274h8.3v8.3h8.3V274h8.3v8.3h8.3V274h8.3
		v8.3h8.3V274h8.3v8.3h8.3V274h8.3v8.3h8.3V274h8.3v8.3h8.3V274h8.3v8.3h8.3V274h8.3v8.3h8.3V274h8.3v8.3h8.3V274h8.3V298.9z"/>
	<path d="M302.3,315.4H149.3c-0.6,0-1.3,0.1-1.8,0.4l-24.8,12.4c-2,1-2.9,3.5-1.9,5.5c0.4,0.8,1.1,1.5,1.9,1.9l24.8,12.4
		c0.6,0.3,1.2,0.4,1.8,0.5h153.1c9.1,0,16.5-7.4,16.5-16.5C318.9,322.8,311.5,315.4,302.3,315.4z M163.4,336.1h105.8v4.1h-110
		L163.4,336.1z M269.3,327.8H163.4l-4.1-4.1h110V327.8z M148.5,324.6l7.4,7.4l-7.4,7.4l-14.7-7.4L148.5,324.6z M277.5,323.7h8.3
		v16.5h-8.3V323.7z M302.3,340.2h-8.3v-16.5h8.3c4.6,0,8.3,3.7,8.3,8.3C310.6,336.5,306.9,340.2,302.3,340.2z"/>
	<path d="M132.7,187.2c0,18.3,14.8,33.1,33,33.2c18.3,0,33.1-14.8,33.2-33c0-10.2-4.7-19.9-12.7-26.1l12-17.1c1.3-1.9,0.9-4.5-1-5.8
		c-0.7-0.5-1.5-0.7-2.4-0.7h-57.9c-2.3,0-4.1,1.9-4.1,4.1c0,0.8,0.3,1.7,0.7,2.4l12,17.1C137.4,167.4,132.7,177,132.7,187.2z
		 M144.8,145.8h42l-7.8,11.1c-8.4-3.7-18.1-3.7-26.5,0L144.8,145.8z M174.2,163.8l-8.4,12l-8.4-12
		C162.9,161.8,168.8,161.8,174.2,163.8L174.2,163.8z M162.4,185.4c1.3,1.9,3.9,2.3,5.8,1c0.4-0.3,0.7-0.6,1-1l12.2-17.5
		c10.6,8.6,12.3,24.3,3.6,34.9c-8.6,10.6-24.3,12.3-34.9,3.6c-10.6-8.6-12.3-24.3-3.6-34.9c1.1-1.3,2.3-2.6,3.6-3.6L162.4,185.4z"/>
	<path d="M244.4,220.3h57.9c2.3,0,4.1-1.9,4.1-4.1v-57.9c0-2.3-1.9-4.1-4.1-4.1h-3.6l7-10c1.3-1.9,0.9-4.5-1-5.8
		c-0.7-0.5-1.5-0.7-2.4-0.7h-57.9c-2.3,0-4.1,1.9-4.1,4.1c0,0.8,0.3,1.7,0.7,2.4l7,10h-3.6c-2.3,0-4.1,1.9-4.1,4.1v57.9
		C240.3,218.4,242.1,220.3,244.4,220.3z M252.4,145.8h42l-5.8,8.3h-30.4L252.4,145.8z M282.8,162.3l-9.4,13.5l-9.4-13.5H282.8z
		 M270,185.4c1.3,1.9,3.9,2.3,5.8,1c0.4-0.3,0.7-0.6,1-1l16.2-23.1h5.3V212h-49.6v-49.6h5.3L270,185.4z"/>
</g>
</svg>
