<?xml version="1.0" encoding="utf-8"?>
<!-- Generator: Adobe Illustrator 24.2.0, SVG Export Plug-In . SVG Version: 6.00 Build 0)  -->
<svg version="1.1" id="Layer_1" xmlns="http://www.w3.org/2000/svg" xmlns:xlink="http://www.w3.org/1999/xlink" x="0px" y="0px"
	 viewBox="0 0 99.7 78.2" style="enable-background:new 0 0 99.7 78.2;" xml:space="preserve">
<style type="text/css">
	.st0{fill:#FFFFFF;}
</style>
<g>
	<path class="st0" d="M98,0H1.8C0.8,0,0,0.8,0,1.8v74.6c0,1,0.8,1.8,1.8,1.8h82.1c0.5,0,0.9-0.2,1.2-0.5l14.1-14.1
		c0.3-0.3,0.5-0.8,0.5-1.2V1.8C99.7,0.8,99,0,98,0z M96.2,3.5v13.4H3.5V3.5H96.2z M3.5,20.4h92.7v40.1H83.9c-1,0-1.7,0.8-1.8,1.7
		v12.3H3.5L3.5,20.4z M93.8,64.1l-8.1,8.1v-8.1H93.8z"/>
	<path class="st0" d="M12.8,13.1c1.6,0,2.9-1.3,2.9-2.9s-1.3-2.9-2.9-2.9s-2.9,1.3-2.9,2.9S11.2,13.1,12.8,13.1z"/>
	<path class="st0" d="M24.5,13.1c1.6,0,2.9-1.3,2.9-2.9s-1.3-2.9-2.9-2.9s-2.9,1.3-2.9,2.9S22.9,13.1,24.5,13.1z"/>
	<path class="st0" d="M36.2,13.1c1.6,0,2.9-1.3,2.9-2.9s-1.3-2.9-2.9-2.9s-2.9,1.3-2.9,2.9S34.6,13.1,36.2,13.1z"/>
	<path class="st0" d="M33.2,34.3L22.9,49.4v4h9.7v4.7H37v-4.8h2.9v-4H37v-15L33.2,34.3z M32.7,49.4h-5.5l5.5-8.1V49.4z"/>
	<path class="st0" d="M49.9,58.5c2.1,0,4.1-0.8,5.4-2.4c1.6-2,2.3-5.2,2.3-9.7s-0.8-7.7-2.3-9.7c-1.4-1.6-3.4-2.5-5.4-2.5
		c-2.8,0-4.6,1.3-5.5,2.5c-1.4,2.1-2.2,5.1-2.2,9.5c0,4.6,0.7,7.7,2.1,9.5C45.6,57.6,47.7,58.5,49.9,58.5z M47.4,40.5
		c0.3-1.1,1-2.4,2.5-2.4c1.8,0,2.4,1.8,2.5,2.6c0.4,1.9,0.4,3.8,0.4,5.7c0,2-0.1,4-0.5,5.9c-0.1,0.7-0.5,1.4-1,1.9
		c-0.9,0.7-2.1,0.7-2.9,0c-0.6-0.6-0.9-1.3-1.1-2.1c-0.4-1.9-0.4-3.8-0.4-5.7C46.9,44.4,47,42.4,47.4,40.5z"/>
	<path class="st0" d="M70.1,34.3L59.8,49.4v4h9.7v4.7h4.4v-4.8h3v-4h-3v-15L70.1,34.3z M69.5,49.4H64l5.5-8.1V49.4z"/>
</g>
</svg>
