<?xml version="1.0" encoding="utf-8"?>
<!-- Generator: Adobe Illustrator 24.2.0, SVG Export Plug-In . SVG Version: 6.00 Build 0)  -->
<svg version="1.1" id="Layer_1" xmlns="http://www.w3.org/2000/svg" xmlns:xlink="http://www.w3.org/1999/xlink" x="0px" y="0px"
	 viewBox="0 0 427 424.7" style="enable-background:new 0 0 427 424.7;" xml:space="preserve">
<style type="text/css">
	.st0{fill:#330000;}
	.st1{fill:#FF9A00;}
</style>
<g>
	<path class="st0" d="M19,0v408h408V0H19z M398,379H48V29h350V379z"/>
</g>
<g>
	<path class="st1" d="M0,17v408h408V17H0z M379,396H29V46h350V396z"/>
</g>
<g>
	<path class="st0" d="M205,237.8h-44.4l-8.7,34.5h-36.8l46.7-150.3H205l46.7,150.3h-38L205,237.8z M198.1,210l-3.2-12.7
		c-4-14.9-7.9-32.9-11.9-48.3h-0.8c-3.6,15.8-7.7,33.3-11.5,48.3l-3.2,12.7H198.1z"/>
	<path class="st0" d="M262,123.1c0-10.9,8.5-18.6,20.6-18.6c11.9,0,20.4,7.7,20.4,18.6c0,10.7-8.5,18.4-20.4,18.4
		C270.4,141.5,262,133.8,262,123.1z M264.6,157.5h35.8v114.9h-35.8V157.5z"/>
</g>
<g>
	<path class="st1" d="M193.2,248.1h-44.4l-8.7,34.5h-36.8L150,132.3h43.2l46.7,150.3h-38L193.2,248.1z M186.3,220.2l-3.2-12.7
		c-4-14.9-7.9-32.9-11.9-48.3h-0.8c-3.6,15.8-7.7,33.3-11.5,48.3l-3.2,12.7H186.3z"/>
	<path class="st1" d="M250.2,133.3c0-10.9,8.5-18.6,20.6-18.6c11.9,0,20.4,7.7,20.4,18.6c0,10.7-8.5,18.4-20.4,18.4
		C258.6,151.7,250.2,144,250.2,133.3z M252.8,167.7h35.8v114.9h-35.8V167.7z"/>
</g>
</svg>
