<?xml version="1.0" encoding="utf-8"?>
<!-- Generator: Adobe Illustrator 24.2.0, SVG Export Plug-In . SVG Version: 6.00 Build 0)  -->
<svg version="1.1" id="Layer_1" xmlns="http://www.w3.org/2000/svg" xmlns:xlink="http://www.w3.org/1999/xlink" x="0px" y="0px"
	 viewBox="0 0 427 424.7" style="enable-background:new 0 0 427 424.7;" xml:space="preserve">
<style type="text/css">
	.st0{fill:#49021F;}
	.st1{fill:#FF3366;}
</style>
<g>
	<g>
		<path class="st0" d="M19,0v408h408V0H19z M398,379H48V29h350V379z"/>
	</g>
</g>
<g>
	<g>
		<path class="st1" d="M0,17v408h408V17H0z M379,396H29V46h350V396z"/>
	</g>
</g>
<g>
	<g>
		<path class="st0" d="M131.4,122.1h36.2v150.3h-36.2V122.1z"/>
		<path class="st0" d="M193.4,215c0-37.8,23.6-60.4,47.5-60.4c12.7,0,20.2,4.6,27.7,11.9l-1.4-17.2V111h36.2v161.4H274l-2.6-11.1
			h-0.8c-8.1,8.1-19.2,13.9-30.1,13.9C211.8,275.2,193.4,252.4,193.4,215z M267.1,236v-45.2c-5.5-5-11.7-6.9-17.8-6.9
			c-9.9,0-19,9.3-19,30.5c0,22,7.3,31.3,19.6,31.3C256.8,245.7,262.3,243.5,267.1,236z"/>
	</g>
</g>
<g>
	<g>
		<path class="st1" d="M119.6,132.3h36.2v150.3h-36.2V132.3z"/>
		<path class="st1" d="M181.6,225.2c0-37.8,23.6-60.4,47.5-60.4c12.7,0,20.2,4.6,27.7,11.9l-1.4-17.2v-38.4h36.2v161.4h-29.3
			l-2.6-11.1h-0.8c-8.1,8.1-19.2,13.9-30.1,13.9C200,285.4,181.6,262.6,181.6,225.2z M255.3,246.3V201c-5.5-5-11.7-6.9-17.8-6.9
			c-9.9,0-19,9.3-19,30.5c0,22,7.3,31.3,19.6,31.3C245,256,250.5,253.7,255.3,246.3z"/>
	</g>
</g>
</svg>
