<?xml version="1.0" encoding="utf-8"?>
<!-- Generator: Adobe Illustrator 24.2.0, SVG Export Plug-In . SVG Version: 6.00 Build 0)  -->
<svg version="1.1" id="Layer_1" xmlns="http://www.w3.org/2000/svg" xmlns:xlink="http://www.w3.org/1999/xlink" x="0px" y="0px"
	 viewBox="0 0 495 495" style="enable-background:new 0 0 495 495;" xml:space="preserve">
<style type="text/css">
	.st0{fill:#FFFFFF;}
</style>
<g>
	<polygon class="st0" points="247.5,0 247.5,40 455,40 455,455 247.5,455 247.5,495 495,495 495,0 	"/>
	<polygon class="st0" points="40,455 40,40 247.5,40 247.5,0 0,0 0,495 247.5,495 247.5,455 	"/>
	<path class="st0" d="M127.3,167.2h0.4c23.6,0,38.2-15.6,38.2-35.1c-0.4-19.9-14.6-35.1-37.8-35.1C105.1,97,90,112.2,90,132.1
		C90,151.6,104.7,167.2,127.3,167.2z"/>
	<path class="st0" d="M266.4,398V284.6c0-6.1,0.5-12.1,2.2-16.5c4.9-12.1,16-24.7,34.6-24.7c24.4,0,34.2,18.6,34.2,45.9V398H405
		V281.5c0-62.4-33.3-91.4-77.7-91.4c-35.9,0-51.9,19.7-60.9,33.5v0.7H266c0.1-0.2,0.3-0.4,0.4-0.7v-28.8h-67.5
		c0.9,19.1,0,203.1,0,203.1L266.4,398L266.4,398z"/>
	<rect x="94" y="194.9" class="st0" width="67.5" height="203.1"/>
</g>
</svg>
