<?xml version="1.0" encoding="utf-8"?>
<!-- Generator: Adobe Illustrator 24.2.0, SVG Export Plug-In . SVG Version: 6.00 Build 0)  -->
<svg version="1.1" id="Layer_1" xmlns="http://www.w3.org/2000/svg" xmlns:xlink="http://www.w3.org/1999/xlink" x="0px" y="0px"
	 viewBox="0 0 464 333.9" style="enable-background:new 0 0 464 333.9;" xml:space="preserve">
<style type="text/css">
	.st0{fill:#FFFFFF;}
</style>
<g>
	<g>
		<path class="st0" d="M12.7,284.7V43.9h57.4v29.7H44V255h26.1v29.7H12.7z"/>
		<path class="st0" d="M126.9,55.1h51.3c33.2,0,49.7,17.6,49.7,53v12.2c0,35.1-13.2,56.2-51.2,56.2h-11.3v78.7h-38.6V55.1z
			 M165.5,145.4h6.2c14.6,0,17.7-8.2,17.7-24.9v-13.8c0-12.9-3-21.3-15.9-21.3h-8.1V145.4z"/>
		<path class="st0" d="M245.4,55.1h47.3c34,0,50.4,14.7,50.4,45.7v8c0,27.1-10.1,35.7-19.5,39.3c9.2,3.8,22.8,11.2,22.8,39.1v15.9
			c0,35-14.6,52.2-51.2,52.2h-49.9V55.1z M288.9,133.9c13,0,17.5-4.2,17.5-19.5v-10.3c0-12.8-4.1-18.6-16.3-18.6h-7.2v48.5H288.9z
			 M282.8,225.3h7.7c13.7,0,17-6.4,17-21.2v-18.4c0-15.5-3.7-22.2-19.5-22.2h-5.2V225.3z"/>
		<path class="st0" d="M455.5,43.9v240.8h-57.4V255h26.1V73.6h-26.1V43.9H455.5z"/>
	</g>
</g>
</svg>
