<?xml version="1.0" encoding="utf-8"?>
<!-- Generator: Adobe Illustrator 24.2.0, SVG Export Plug-In . SVG Version: 6.00 Build 0)  -->
<svg version="1.1" id="Layer_1" xmlns="http://www.w3.org/2000/svg" xmlns:xlink="http://www.w3.org/1999/xlink" x="0px" y="0px"
	 viewBox="0 0 659 332.5" style="enable-background:new 0 0 659 332.5;" xml:space="preserve">
<style type="text/css">
	.st0{fill:none;}
	.st1{font-family:'NotoSansKR-Black-KSCpc-EUC-H';}
	.st2{font-size:25px;}
</style>
<g>
	<path d="M12,19h36.5c23,0,41.9,8.1,41.9,33.9c0,24.8-19.2,35.7-41.2,35.7H37.1v34.6H12V19z M48,68.9c12.2,0,18.1-5.7,18.1-16
		c0-10.5-6.7-14.1-18.8-14.1H37.1v30.1H48z"/>
	<path d="M149.4,99.3h-30.8l-6,23.9H87.1L119.4,19h30l32.3,104.2h-26.3L149.4,99.3z M144.6,79.9l-2.2-8.8
		c-2.8-10.4-5.5-22.8-8.3-33.5h-0.6c-2.5,10.9-5.3,23.1-8,33.5l-2.2,8.8H144.6z"/>
	<path d="M200.8,39.8h-28.1V19h81.5v20.7h-28.3v83.4h-25.1V39.8z"/>
	<path d="M326.5,123.2l-19.2-36.7h-12v36.7h-25.1V19h38.2c22.3,0,40.7,7.6,40.7,32.8c0,15.3-7.1,25.1-17.9,30.1l23.2,41.3H326.5z
		 M295.3,66.8h11.2c11.9,0,18.2-5.2,18.2-15c0-9.8-6.3-13-18.2-13h-11.2V66.8z"/>
	<path d="M369.3,19h25.1v104.2h-25.1V19z"/>
	<path d="M413.6,71.7c0-34.7,23.2-54.6,49.7-54.6c13.6,0,24.5,6.3,31.6,13.6l-13.2,16c-5.2-4.8-10.6-8.1-18.1-8.1
		c-13.4,0-24.5,12-24.5,32.3c0,20.7,9.5,32.8,24.2,32.8c8.3,0,15-4.2,19.9-9.5l13.2,15.7c-8.8,10.2-20.4,15.4-34,15.4
		C436,125.2,413.6,107,413.6,71.7z"/>
	<path d="M511.7,19h25.1v41.2h0.4L566.7,19h27.4l-31.5,41.7l37.4,62.4h-27.4l-24.5-42.7l-11.3,15.4v27.3h-25.1V19z"/>
	<path d="M12,155h36.4c21.6,0,38.8,5.7,38.8,25.8c0,9.2-5.2,19.3-13.6,22.5v0.6c10.5,2.8,18.5,10.6,18.5,24.5
		c0,21.3-18.1,30.8-40.7,30.8H12V155z M47.5,196.3c10.6,0,15.4-4.6,15.4-11.8c0-7.4-4.9-10.5-15.4-10.5H37.1v22.3H47.5z M49.6,240
		c12,0,18.2-4.3,18.2-13.3c0-8.5-6-11.9-18.2-11.9H37.1V240H49.6z"/>
	<path d="M165.6,259.2l-19.2-36.7h-12v36.7h-25.1V155h38.2c22.3,0,40.7,7.6,40.7,32.8c0,15.3-7.1,25.1-17.9,30.1l23.2,41.3H165.6z
		 M134.4,202.8h11.2c11.9,0,18.2-5.2,18.2-15s-6.3-13-18.2-13h-11.2V202.8z"/>
	<path d="M256.1,235.3h-30.8l-6,23.9h-25.5L226.1,155h30l32.3,104.2h-26.3L256.1,235.3z M251.3,215.9l-2.2-8.8
		c-2.8-10.4-5.5-22.8-8.3-33.5h-0.6c-2.5,10.9-5.3,23.1-8,33.5l-2.2,8.8H251.3z"/>
	<path d="M299.3,155h30c31.8,0,52.8,15.3,52.8,51.5s-21,52.6-51.4,52.6h-31.4V155z M327.7,239c16.8,0,28.7-7.7,28.7-32.5
		c0-24.8-11.9-31.6-28.7-31.6h-3.4V239H327.7z"/>
	<path d="M401.4,155h25.1v83.2h40.5v21h-65.5V155z"/>
	<path d="M485,155H551v20.7h-41v19.3h34.9v21H510v22.1h42.6v21H485V155z"/>
	<path d="M591.2,222.4L559.9,155h26.6l8.7,23.1c2.8,7.8,5.5,15.1,8.4,23.2h0.6c2.9-8.1,5.7-15.4,8.7-23.2l8.7-23.1h26.2l-31.5,67.3
		v36.8h-24.9V222.4z"/>
</g>
<rect x="9.5" y="293.1" class="st0" width="210.5" height="27.3"/>
<text transform="matrix(1 0 0 1 9.5273 313.0415)" class="st1 st2">UX/UI DESIGNER</text>
</svg>
