<?xml version="1.0" encoding="utf-8"?>
<!-- Generator: Adobe Illustrator 24.2.0, SVG Export Plug-In . SVG Version: 6.00 Build 0)  -->
<svg version="1.1" id="Layer_1" xmlns="http://www.w3.org/2000/svg" xmlns:xlink="http://www.w3.org/1999/xlink" x="0px" y="0px"
	 viewBox="0 0 427 424.7" style="enable-background:new 0 0 427 424.7;" xml:space="preserve">
<style type="text/css">
	.st0{fill:#122535;}
	.st1{fill:#8BC3FC;}
</style>
<g>
	<path class="st0" d="M19,0v408h408V0H19z M398,379H48V29h350V379z"/>
</g>
<g>
	<path class="st1" d="M0,17v408h408V17H0z M379,396H29V46h350V396z"/>
</g>
<g>
	<path class="st0" d="M100.5,122.1h52.7c33.1,0,60.4,11.7,60.4,48.9c0,35.8-27.7,51.5-59.4,51.5h-17.6v49.9h-36.2V122.1z M152.4,194
		c17.6,0,26.1-8.3,26.1-23c0-15.1-9.7-20.4-27.1-20.4h-14.7V194H152.4z"/>
	<path class="st0" d="M227.3,253.6l20.4-24.8c10.7,9.1,24.6,15.4,36.6,15.4c13.3,0,19.6-5,19.6-13.1c0-8.7-8.3-11.5-21.2-17
		l-19.2-8.1c-15.8-6.3-30.5-19.4-30.5-41.2c0-25.2,22.6-45.4,54.5-45.4c17.4,0,35.8,6.7,48.9,19.8l-18,22.6
		c-9.9-7.5-19.2-11.5-30.9-11.5c-11.1,0-18,4.4-18,12.5c0,8.3,9.5,11.5,22.8,16.8l18.8,7.5c18.6,7.5,29.7,20,29.7,41.2
		c0,25-21,47.1-57.4,47.1C263.9,275.2,242.9,267.9,227.3,253.6z"/>
</g>
<g>
	<path class="st1" d="M88.7,132.3h52.7c33.1,0,60.4,11.7,60.4,48.9c0,35.8-27.7,51.5-59.4,51.5h-17.6v49.9H88.7V132.3z M140.6,204.2
		c17.6,0,26.1-8.3,26.1-23c0-15.1-9.7-20.4-27.1-20.4h-14.7v43.4H140.6z"/>
	<path class="st1" d="M215.5,263.8l20.4-24.8c10.7,9.1,24.6,15.4,36.6,15.4c13.3,0,19.6-5,19.6-13.1c0-8.7-8.3-11.5-21.2-17
		l-19.2-8.1c-15.8-6.3-30.5-19.4-30.5-41.2c0-25.2,22.6-45.4,54.5-45.4c17.4,0,35.8,6.7,48.9,19.8l-18,22.6
		c-9.9-7.5-19.2-11.5-30.9-11.5c-11.1,0-18,4.4-18,12.5c0,8.3,9.5,11.5,22.8,16.8l18.8,7.5c18.6,7.5,29.7,20,29.7,41.2
		c0,25-21,47.1-57.4,47.1C252.1,285.4,231.1,278.2,215.5,263.8z"/>
</g>
</svg>
