<?xml version="1.0" encoding="utf-8"?>
<!-- Generator: Adobe Illustrator 24.2.0, SVG Export Plug-In . SVG Version: 6.00 Build 0)  -->
<svg version="1.1" id="Layer_1" xmlns="http://www.w3.org/2000/svg" xmlns:xlink="http://www.w3.org/1999/xlink" x="0px" y="0px"
	 viewBox="0 0 440 440" style="enable-background:new 0 0 440 440;" xml:space="preserve">
<style type="text/css">
	.st0{fill:#FF9A00;stroke:#000000;stroke-width:16;stroke-miterlimit:10;}
	.st1{fill:#FFFFFF;}
	.st2{fill:#FFFFFF;stroke:#000000;stroke-width:4;stroke-miterlimit:10;}
	.st3{fill:none;stroke:#000000;stroke-width:4;stroke-miterlimit:10;}
</style>
<rect x="8.5" y="8.5" class="st0" width="424" height="424"/>
<g>
	<rect x="129.5" y="85.5" class="st1" width="169" height="270"/>
	<g>
		<g>
			<path d="M284,76H148.8c-13.3,0-24.1,10.8-24.1,24.1v241.3c0,13.3,10.8,24.1,24.1,24.1H284c13.3,0,24.1-10.8,24.1-24.1V100.1
				C308.1,86.8,297.3,76,284,76z M298.4,341.4c0,8-6.5,14.5-14.5,14.5H148.8c-8,0-14.5-6.5-14.5-14.5v-4.8h164.1V341.4z
				 M298.4,326.9H134.4V114.6h164.1V326.9z M298.4,104.9H134.4v-4.8c0-8,6.5-14.5,14.5-14.5H284c8,0,14.5,6.5,14.5,14.5V104.9z"/>
		</g>
	</g>
	<g>
		<g>
			<path d="M206.7,90.4h-9.7c-2.7,0-4.8,2.2-4.8,4.8s2.2,4.8,4.8,4.8h9.7c2.7,0,4.8-2.2,4.8-4.8S209.4,90.4,206.7,90.4z"/>
		</g>
	</g>
	<g>
		<g>
			<path d="M240.5,90.4h-19.3c-2.7,0-4.8,2.2-4.8,4.8s2.2,4.8,4.8,4.8h19.3c2.7,0,4.8-2.2,4.8-4.8S243.2,90.4,240.5,90.4z"/>
		</g>
	</g>
	<g>
		<g>
			<path d="M230.9,341.4h-29c-2.7,0-4.8,2.2-4.8,4.8c0,2.7,2.2,4.8,4.8,4.8h29c2.7,0,4.8-2.2,4.8-4.8
				C235.7,343.5,233.5,341.4,230.9,341.4z"/>
		</g>
	</g>
</g>
<rect x="213.5" y="197" class="st2" width="70.5" height="29"/>
<rect x="213.5" y="285.5" class="st2" width="70.5" height="30"/>
<rect x="153.5" y="196.5" class="st2" width="44" height="29.5"/>
<rect x="150.6" y="239.8" class="st2" width="48.9" height="75.7"/>
<line class="st3" x1="153.5" y1="133.5" x2="197.5" y2="133.5"/>
<line class="st3" x1="153.5" y1="144.5" x2="197.5" y2="144.5"/>
<line class="st3" x1="153.5" y1="155.5" x2="197.5" y2="155.5"/>
<line class="st3" x1="153.5" y1="167.5" x2="197.5" y2="167.5"/>
<line class="st3" x1="153.5" y1="179.5" x2="197.5" y2="179.5"/>
<line class="st3" x1="213.5" y1="239.5" x2="283.5" y2="239.5"/>
<line class="st3" x1="213.5" y1="250.5" x2="283.5" y2="250.5"/>
<line class="st3" x1="213.5" y1="261.5" x2="283.5" y2="261.5"/>
<line class="st3" x1="213.5" y1="273.5" x2="283.5" y2="273.5"/>
<rect x="213.5" y="133.5" class="st2" width="29" height="22"/>
<rect x="252.5" y="133.5" class="st2" width="29" height="22"/>
<rect x="252.5" y="165.5" class="st2" width="29" height="22"/>
<rect x="213.5" y="165.5" class="st2" width="29" height="22"/>
</svg>
