<?xml version="1.0" encoding="utf-8"?>
<!-- Generator: Adobe Illustrator 24.2.0, SVG Export Plug-In . SVG Version: 6.00 Build 0)  -->
<svg version="1.1" id="Layer_1" xmlns="http://www.w3.org/2000/svg" xmlns:xlink="http://www.w3.org/1999/xlink" x="0px" y="0px"
	 viewBox="0 0 440 440" style="enable-background:new 0 0 440 440;" xml:space="preserve">
<style type="text/css">
	.st0{fill:#D6006B;stroke:#000000;stroke-width:16;stroke-miterlimit:10;}
	.st1{fill:#FFFFFF;}
</style>
<rect x="8.5" y="8.5" class="st0" width="424" height="424"/>
<rect x="180.5" y="211.5" transform="matrix(-1.836970e-16 1 -1 -1.836970e-16 452 -1)" class="st1" width="92" height="28"/>
<rect x="107.5" y="98.5" class="st1" width="40" height="40"/>
<rect x="177.5" y="162.5" class="st1" width="92" height="28"/>
<rect x="107.5" y="295.5" class="st1" width="40" height="40"/>
<rect x="303.5" y="295.5" class="st1" width="40" height="40"/>
<rect x="303.5" y="100.5" class="st1" width="40" height="40"/>
<g>
	<path d="M352.5,148.8V91.3H295v21.3H157V91.3H99.5v57.5H157v-21.3h138v21.3h21.3v138H295v21.3H157v-21.3H99.5v57.5H157v-21.3h138
		v21.3h57.5v-57.5h-21.3v-138H352.5z M142.2,134h-27.9v-27.9h27.9V134z M142.2,329.5h-27.9v-27.9h27.9V329.5z M337.7,329.5h-27.9
		v-27.9h27.9V329.5z M309.8,106.1h27.9V134h-27.9V106.1z"/>
	<path d="M120.8,251.2h14.8v22.2h-14.8V251.2z"/>
	<path d="M120.8,206.7h14.8v22.2h-14.8V206.7z"/>
	<path d="M120.8,162.2h14.8v22.2h-14.8V162.2z"/>
	<path d="M248.3,280.6v-81h30.8V155H172.8v44.6h30.8v81H248.3z M187.7,184.8v-15h76.7v15h-30.8v81h-15v-81H187.7z"/>
</g>
</svg>
