<?xml version="1.0" encoding="utf-8"?>
<!-- Generator: Adobe Illustrator 24.2.0, SVG Export Plug-In . SVG Version: 6.00 Build 0)  -->
<svg version="1.1" id="Layer_1" xmlns="http://www.w3.org/2000/svg" xmlns:xlink="http://www.w3.org/1999/xlink" x="0px" y="0px"
	 viewBox="0 0 440 440" style="enable-background:new 0 0 440 440;" xml:space="preserve">
<style type="text/css">
	.st0{fill:#FF61F6;stroke:#000000;stroke-width:16;stroke-miterlimit:10;}
	.st1{fill:#FFFFFF;}
</style>
<rect x="8.5" y="8.5" class="st0" width="424" height="424"/>
<path class="st1" d="M346.1,293.9c-9.3-6.7-16.8-16.1-23.1-25.6c-0.6-0.3-1.2-0.5-1.8-0.8c-7.7-3.5-16.7-8.6-16.3-18.3
	c0.3-7.9,7-14.3,14.4-17.1L292,205c-5.1-0.4-10.1-1.1-15.1-2.4c-11.5-3.1-22-9.7-34.3-9.3c-3.3,0.1-4.9-2.4-4.8-4.9
	c-9.1-2.1-18.2-4.1-27.4-5.5c-1-0.2-1.7-0.5-2.3-1l-11.9,11.9c2.4,1.4,4.2,4,5.4,6.6c3.2,6.8,4.9,14.5,7,21.7
	c4.8,16.2,9.3,32.5,13.1,49c0.2,0.7,0.2,1.3,0.1,1.9L246,297c4.4-2.6,9.2-4.4,14.1-4.9c0.6-0.8,1.4-1.4,2.6-1.8
	c10.6-3.4,21.1,7.5,27.4,14.4c6.2,6.8,11.8,14.1,17,21.7c2.8,1.9,5.4,3.8,7.9,6.1c1.2-1.2,2.4-2.4,3.7-3.5
	c9.3-8.4,21.3-15.1,29.2-24.9c0.7-0.9,1.3-1.8,1.7-2.8C348.3,298.9,347.2,296.4,346.1,293.9z"/>
<g>
	<path d="M353.3,293.5l-43.6-43.6l21.4-21.4c1.9-1.9,2.6-4.5,2-7.1s-2.5-4.6-5-5.4l-128.3-42.8c-2.7-0.9-5.7-0.2-7.7,1.8
		c-2,2-2.7,5-1.8,7.7L233,311.1c0.8,2.5,2.9,4.4,5.4,5c2.5,0.6,5.2-0.2,7.1-2l21.4-21.4l43.6,43.6c1.5,1.5,3.4,2.2,5.3,2.2
		c1.9,0,3.9-0.7,5.3-2.2l32.1-32.1C356.2,301.2,356.2,296.4,353.3,293.5z M315.9,320.2l-43.6-43.6c-3-3-7.7-3-10.7,0l-18.1,18.1
		l-34.1-102.3l102.3,34.1l-18.1,18.1c-2.9,2.9-3,7.7,0,10.7l43.6,43.6L315.9,320.2z"/>
	<path d="M195.8,140.9c4.2,0,7.6-3.4,7.6-7.6V88c0-4.2-3.4-7.6-7.6-7.6c-4.2,0-7.6,3.4-7.6,7.6v45.4
		C188.2,137.6,191.6,140.9,195.8,140.9z"/>
	<path d="M137,109.2c-3-3-7.7-3-10.7,0s-3,7.7,0,10.7l32.1,32.1c3,3,7.7,3,10.7,0c3-3,3-7.7,0-10.7L137,109.2z"/>
	<path d="M158.3,205.5l-32.1,32.1c-3,3-3,7.7,0,10.7c3,3,7.7,3,10.7,0l32.1-32.1c3-3,3-7.7,0-10.7
		C166.1,202.5,161.3,202.5,158.3,205.5z"/>
	<path d="M233.2,152l32.1-32.1c3-3,3-7.7,0-10.7c-3-3-7.7-3-10.7,0l-32.1,32.1c-3,3-3,7.7,0,10.7C225.4,155,230.2,155,233.2,152z"/>
	<path d="M158,178.7c0-4.2-3.4-7.6-7.6-7.6h-45.4c-4.2,0-7.6,3.4-7.6,7.6c0,4.2,3.4,7.6,7.6,7.6h45.4
		C154.6,186.3,158,182.9,158,178.7z"/>
</g>
</svg>
