<?xml version="1.0" encoding="utf-8"?>
<!-- Generator: Adobe Illustrator 24.2.0, SVG Export Plug-In . SVG Version: 6.00 Build 0)  -->
<svg version="1.1" id="Layer_1" xmlns="http://www.w3.org/2000/svg" xmlns:xlink="http://www.w3.org/1999/xlink" x="0px" y="0px"
	 viewBox="0 0 440 440" style="enable-background:new 0 0 440 440;" xml:space="preserve">
<style type="text/css">
	.st0{fill:#A259FF;stroke:#000000;stroke-width:16;stroke-miterlimit:10;}
	.st1{fill:#FFFFFF;}
</style>
<rect x="8.5" y="8.5" class="st0" width="424" height="424"/>
<path class="st1" d="M143.4,302.6l-8-8c-4.4-4.4-4.4-11.6,0-16l15-15c4.4-4.4,11.6-4.4,16,0l8,8c4.4,4.4,4.4,11.6,0,16l-15,15
	C155,307,147.8,307,143.4,302.6z"/>
<path class="st1" d="M126,311L126,311c-4.4-4.4-4.4-11.6,0-16l15-15c4.4-4.4,11.6-4.4,16,0h0c4.4,4.4,4.4,11.6,0,16l-15,15
	C137.6,315.4,130.4,315.4,126,311z"/>
<rect x="216.6" y="71.3" transform="matrix(0.7071 0.7071 -0.7071 0.7071 210.0955 -110.3506)" class="st1" width="43.4" height="254.3"/>
<g>
	<g>
		<path d="M344.4,116.4l-24.5-24.5c-5.1-5.1-13.3-5.1-18.4,0L134.6,258.9c0,0-0.1,0.1-0.1,0.1c-0.3,0.3-0.6,0.7-0.7,1.1
			c-0.1,0.1-0.1,0.2-0.1,0.3c0,0.1-0.1,0.1-0.1,0.1l-18.4,55.2c-0.7,2.3,0.5,4.7,2.8,5.5c0.9,0.3,1.8,0.3,2.7,0l55.1-18.4
			c0.1,0,0.1-0.1,0.1-0.1c0.1,0,0.2-0.1,0.3-0.1c0.4-0.2,0.8-0.4,1.1-0.7c0,0,0.1-0.1,0.1-0.1l167-166.9
			C349.5,129.8,349.5,121.5,344.4,116.4z M126.1,310.2l13.4-40.3l26.9,26.9L126.1,310.2z M174.4,292.6l-30.6-30.6l136.3-136.3
			l12.3,12.3L211.2,219c-1.7,1.7-1.8,4.4-0.1,6.1c1.7,1.7,4.4,1.8,6.1,0.1c0,0,0.1-0.1,0.1-0.1l81.2-81.2l12.3,12.3L174.4,292.6z
			 M338.3,128.7l-21.4,21.5l-15.3-15.3l-15.3-15.3l21.5-21.4c1.7-1.7,4.4-1.7,6.1,0l24.5,24.5C340,124.3,340,127,338.3,128.7z"/>
	</g>
</g>
<g>
	<g>
		<path d="M354.2,337.8H102.8c-2.4,0-4.3,1.9-4.3,4.3s1.9,4.3,4.3,4.3h251.3c2.4,0,4.3-1.9,4.3-4.3S356.6,337.8,354.2,337.8z"/>
	</g>
</g>
<g>
	<g>
		<path d="M354.2,311.8h-130c-2.4,0-4.3,1.9-4.3,4.3s1.9,4.3,4.3,4.3h130c2.4,0,4.3-1.9,4.3-4.3S356.6,311.8,354.2,311.8z"/>
	</g>
</g>
<g>
	<g>
		<path d="M354.2,281.5H241.5c-2.4,0-4.3,1.9-4.3,4.3c0,2.4,1.9,4.3,4.3,4.3h112.7c2.4,0,4.3-1.9,4.3-4.3
			C358.5,283.4,356.6,281.5,354.2,281.5z"/>
	</g>
</g>
</svg>
