<?xml version="1.0" encoding="utf-8"?>
<!-- Generator: Adobe Illustrator 24.2.0, SVG Export Plug-In . SVG Version: 6.00 Build 0)  -->
<svg version="1.1" id="Layer_1" xmlns="http://www.w3.org/2000/svg" xmlns:xlink="http://www.w3.org/1999/xlink" x="0px" y="0px"
	 viewBox="0 0 440 440" style="enable-background:new 0 0 440 440;" xml:space="preserve">
<style type="text/css">
	.st0{fill:#8BC3FC;stroke:#000000;stroke-width:16;stroke-miterlimit:10;}
	.st1{fill:#FFFFFF;}
</style>
<rect x="8.5" y="8.5" class="st0" width="424" height="424"/>
<path d="M246,113.7c-2.8,0-5,2.3-5,5s2.3,5,5,5s5-2.3,5-5S248.8,113.7,246,113.7z"/>
<rect x="100.2" y="100.6" class="st1" width="244.4" height="244.4"/>
<path d="M286.3,113.7h-20.2c-2.8,0-5,2.3-5,5s2.3,5,5,5h20.2c2.8,0,5-2.3,5-5S289.1,113.7,286.3,113.7z"/>
<path d="M326.6,113.7h-20.2c-2.8,0-5,2.3-5,5s2.3,5,5,5h20.2c2.8,0,5-2.3,5-5S329.4,113.7,326.6,113.7z"/>
<path d="M336.7,93.5H108.9c-8.3,0-15.1,6.8-15.1,15.1v227.8c0,8.3,6.8,15.1,15.1,15.1h227.8c8.3,0,15.1-6.8,15.1-15.1V108.6
	C351.8,100.3,345,93.5,336.7,93.5z M341.7,336.4c0,2.8-2.3,5-5,5H108.9c-2.8,0-5-2.3-5-5V143.9h237.8V336.4z M341.7,133.8H103.9
	v-25.2c0-2.8,2.3-5,5-5h227.8c2.8,0,5,2.3,5,5V133.8z"/>
<path d="M132.1,207.4h181.4c2.8,0,5-2.3,5-5v-30.2c0-2.8-2.3-5-5-5H132.1c-2.8,0-5,2.3-5,5v30.2
	C127.1,205.1,129.3,207.4,132.1,207.4z M137.2,177.1h171.3v20.2H137.2V177.1z"/>
<path d="M132.1,319.8h60.5c2.8,0,5-2.3,5-5v-80.6c0-2.8-2.3-5-5-5h-60.5c-2.8,0-5,2.3-5,5v80.6C127.1,317.5,129.3,319.8,132.1,319.8
	z M137.2,239.1h50.4v70.5h-50.4V239.1z"/>
<path d="M313.5,229.1h-90.7c0,0-0.1,0-0.1,0c-2.8,0.1-4.9,2.4-4.9,5v80.6c0,0,0,0.1,0,0.1c0,2.8,2.3,5,5,5h90.7c2.7,0,5-2.2,5-5
	c0,0,0-0.1,0-0.1v-80.6C318.6,231.3,316.3,229.1,313.5,229.1z M300.3,239.1l-32.1,28.5l-32.1-28.5H300.3z M227.9,245.3l32.7,29.1
	l-32.7,29.1V245.3z M236.1,309.7l32.1-28.5l32.1,28.5H236.1z M308.5,303.5l-32.7-29.1l32.7-29.1V303.5z"/>
</svg>
