<?xml version="1.0" encoding="utf-8"?>
<!-- Generator: Adobe Illustrator 24.2.0, SVG Export Plug-In . SVG Version: 6.00 Build 0)  -->
<svg version="1.1" id="Layer_1" xmlns="http://www.w3.org/2000/svg" xmlns:xlink="http://www.w3.org/1999/xlink" x="0px" y="0px"
	 viewBox="0 0 427 424.7" style="enable-background:new 0 0 427 424.7;" xml:space="preserve">
<style type="text/css">
	.st0{fill:#470137;}
	.st1{fill:#FF61F6;}
</style>
<g>
	<g>
		<path class="st0" d="M19,0v408h408V0H19z M398,379H48V29h350V379z"/>
	</g>
</g>
<g>
	<g>
		<path class="st1" d="M0,17v408h408V17H0z M379,396H29V46h350V396z"/>
	</g>
</g>
<g>
	<g>
		<path class="st0" d="M128.8,195l-39-72.9H130l12.1,26.9c3.2,7.1,6.7,14.9,10.9,24.6h0.8c3.4-9.7,6.7-17.6,9.7-24.6l10.9-26.9h38.2
			l-38.8,74.5l41.4,75.7h-40.2l-13.9-29.3c-3.6-7.9-7.1-15.8-11.1-25h-0.8c-3.6,9.3-6.9,17.2-10.3,25L126,272.4H87.4L128.8,195z"/>
		<path class="st0" d="M222.4,215c0-37.8,23.6-60.4,47.5-60.4c12.7,0,20.2,4.6,27.7,11.9l-1.4-17.2V111h36.2v161.4H303l-2.6-11.1
			h-0.8c-8.1,8.1-19.2,13.9-30.1,13.9C240.7,275.2,222.4,252.4,222.4,215z M296.1,236v-45.2c-5.5-5-11.7-6.9-17.8-6.9
			c-9.9,0-19,9.3-19,30.5c0,22,7.3,31.3,19.6,31.3C285.8,245.7,291.2,243.5,296.1,236z"/>
	</g>
</g>
<g>
	<g>
		<path class="st1" d="M117,205.3l-39-72.9h40.2l12.1,26.9c3.2,7.1,6.7,14.9,10.9,24.6h0.8c3.4-9.7,6.7-17.6,9.7-24.6l10.9-26.9
			h38.2l-38.8,74.5l41.4,75.7h-40.2l-13.9-29.3c-3.6-7.9-7.1-15.8-11.1-25h-0.8c-3.6,9.3-6.9,17.2-10.3,25l-12.9,29.3H75.6
			L117,205.3z"/>
		<path class="st1" d="M210.6,225.2c0-37.8,23.6-60.4,47.5-60.4c12.7,0,20.2,4.6,27.7,11.9l-1.4-17.2v-38.4h36.2v161.4h-29.3
			l-2.6-11.1h-0.8c-8.1,8.1-19.2,13.9-30.1,13.9C228.9,285.4,210.6,262.6,210.6,225.2z M284.3,246.3V201c-5.5-5-11.7-6.9-17.8-6.9
			c-9.9,0-19,9.3-19,30.5c0,22,7.3,31.3,19.6,31.3C274,256,279.4,253.7,284.3,246.3z"/>
	</g>
</g>
</svg>
